<mxfile host="app.diagrams.net" agent="Mozilla/5.0 (Windows NT 10.0; Win64; x64) AppleWebKit/537.36 (KHTML, like Gecko) Chrome/135.0.0.0 Safari/537.36" version="26.2.14">
  <diagram name="Page-1" id="58cdce13-f638-feb5-8d6f-7d28b1aa9fa0">
    <mxGraphModel dx="872" dy="439" grid="1" gridSize="10" guides="1" tooltips="1" connect="1" arrows="1" fold="1" page="1" pageScale="1" pageWidth="1100" pageHeight="850" background="none" math="0" shadow="0">
      <root>
        <mxCell id="0" />
        <mxCell id="1" parent="0" />
        <mxCell id="9Hj8waU0C1e9nVC4eu25-9" style="edgeStyle=orthogonalEdgeStyle;rounded=0;orthogonalLoop=1;jettySize=auto;html=1;entryX=0.5;entryY=0;entryDx=0;entryDy=0;" edge="1" parent="1" source="382b91b5511bd0f7-1" target="382b91b5511bd0f7-6">
          <mxGeometry relative="1" as="geometry" />
        </mxCell>
        <mxCell id="382b91b5511bd0f7-1" value="" style="ellipse;html=1;shape=startState;fillColor=#000000;strokeColor=#ff0000;rounded=1;shadow=0;comic=0;labelBackgroundColor=none;fontFamily=Verdana;fontSize=12;fontColor=#000000;align=center;direction=south;" parent="1" vertex="1">
          <mxGeometry x="410" y="60" width="30" height="30" as="geometry" />
        </mxCell>
        <mxCell id="9Hj8waU0C1e9nVC4eu25-4" style="edgeStyle=orthogonalEdgeStyle;rounded=0;orthogonalLoop=1;jettySize=auto;html=1;entryX=0.5;entryY=0;entryDx=0;entryDy=0;strokeColor=light-dark(#000000,#EDEDED);" edge="1" parent="1" source="382b91b5511bd0f7-6" target="9Hj8waU0C1e9nVC4eu25-3">
          <mxGeometry relative="1" as="geometry" />
        </mxCell>
        <mxCell id="382b91b5511bd0f7-6" value="Pending" style="rounded=1;whiteSpace=wrap;html=1;arcSize=24;fillColor=#ffffc0;strokeColor=#ff0000;shadow=0;comic=0;labelBackgroundColor=none;fontFamily=Verdana;fontSize=12;fontColor=#000000;align=center;" parent="1" vertex="1">
          <mxGeometry x="380" y="140" width="90" height="50" as="geometry" />
        </mxCell>
        <mxCell id="9Hj8waU0C1e9nVC4eu25-1" value="" style="ellipse;html=1;shape=endState;fillColor=#000000;strokeColor=#ff0000;rounded=1;shadow=0;comic=0;labelBackgroundColor=none;fontFamily=Verdana;fontSize=12;fontColor=#000000;align=center;" vertex="1" parent="1">
          <mxGeometry x="400" y="580" width="30" height="30" as="geometry" />
        </mxCell>
        <mxCell id="9Hj8waU0C1e9nVC4eu25-2" value="Booking requested" style="text;html=1;align=center;verticalAlign=middle;whiteSpace=wrap;rounded=0;" vertex="1" parent="1">
          <mxGeometry x="420" y="90" width="130" height="30" as="geometry" />
        </mxCell>
        <mxCell id="9Hj8waU0C1e9nVC4eu25-14" style="edgeStyle=orthogonalEdgeStyle;rounded=0;orthogonalLoop=1;jettySize=auto;html=1;entryX=0.5;entryY=0;entryDx=0;entryDy=0;" edge="1" parent="1" source="9Hj8waU0C1e9nVC4eu25-3" target="9Hj8waU0C1e9nVC4eu25-13">
          <mxGeometry relative="1" as="geometry" />
        </mxCell>
        <mxCell id="9Hj8waU0C1e9nVC4eu25-16" style="edgeStyle=orthogonalEdgeStyle;rounded=0;orthogonalLoop=1;jettySize=auto;html=1;entryX=0.5;entryY=0;entryDx=0;entryDy=0;" edge="1" parent="1" source="9Hj8waU0C1e9nVC4eu25-3" target="9Hj8waU0C1e9nVC4eu25-15">
          <mxGeometry relative="1" as="geometry" />
        </mxCell>
        <mxCell id="9Hj8waU0C1e9nVC4eu25-3" value="Confirmed" style="rounded=1;whiteSpace=wrap;html=1;arcSize=24;fillColor=#ffffc0;strokeColor=#ff0000;shadow=0;comic=0;labelBackgroundColor=none;fontFamily=Verdana;fontSize=12;fontColor=#000000;align=center;" vertex="1" parent="1">
          <mxGeometry x="380" y="250" width="90" height="50" as="geometry" />
        </mxCell>
        <mxCell id="9Hj8waU0C1e9nVC4eu25-5" value="Payment succeeds" style="text;html=1;align=center;verticalAlign=middle;whiteSpace=wrap;rounded=0;" vertex="1" parent="1">
          <mxGeometry x="430" y="200" width="110" height="30" as="geometry" />
        </mxCell>
        <mxCell id="9Hj8waU0C1e9nVC4eu25-23" style="edgeStyle=orthogonalEdgeStyle;rounded=0;orthogonalLoop=1;jettySize=auto;html=1;entryX=0;entryY=0.5;entryDx=0;entryDy=0;" edge="1" parent="1" source="9Hj8waU0C1e9nVC4eu25-13" target="9Hj8waU0C1e9nVC4eu25-1">
          <mxGeometry relative="1" as="geometry">
            <Array as="points">
              <mxPoint x="295" y="595" />
            </Array>
          </mxGeometry>
        </mxCell>
        <mxCell id="9Hj8waU0C1e9nVC4eu25-13" value="Completed" style="rounded=1;whiteSpace=wrap;html=1;arcSize=24;fillColor=#ffffc0;strokeColor=#ff0000;shadow=0;comic=0;labelBackgroundColor=none;fontFamily=Verdana;fontSize=12;fontColor=#000000;align=center;" vertex="1" parent="1">
          <mxGeometry x="250" y="350" width="90" height="50" as="geometry" />
        </mxCell>
        <mxCell id="9Hj8waU0C1e9nVC4eu25-20" style="edgeStyle=orthogonalEdgeStyle;rounded=0;orthogonalLoop=1;jettySize=auto;html=1;entryX=0.5;entryY=0;entryDx=0;entryDy=0;" edge="1" parent="1" source="9Hj8waU0C1e9nVC4eu25-15" target="9Hj8waU0C1e9nVC4eu25-19">
          <mxGeometry relative="1" as="geometry" />
        </mxCell>
        <mxCell id="9Hj8waU0C1e9nVC4eu25-15" value="Canceled" style="rounded=1;whiteSpace=wrap;html=1;arcSize=24;fillColor=#ffffc0;strokeColor=#ff0000;shadow=0;comic=0;labelBackgroundColor=none;fontFamily=Verdana;fontSize=12;fontColor=#000000;align=center;" vertex="1" parent="1">
          <mxGeometry x="490" y="360" width="90" height="50" as="geometry" />
        </mxCell>
        <mxCell id="9Hj8waU0C1e9nVC4eu25-17" value="User cancel" style="text;html=1;align=center;verticalAlign=middle;whiteSpace=wrap;rounded=0;" vertex="1" parent="1">
          <mxGeometry x="530" y="300" width="90" height="30" as="geometry" />
        </mxCell>
        <mxCell id="9Hj8waU0C1e9nVC4eu25-18" value="Canceled after payment" style="text;html=1;align=center;verticalAlign=middle;whiteSpace=wrap;rounded=0;" vertex="1" parent="1">
          <mxGeometry x="540" y="430" width="140" height="30" as="geometry" />
        </mxCell>
        <mxCell id="9Hj8waU0C1e9nVC4eu25-22" style="edgeStyle=orthogonalEdgeStyle;rounded=0;orthogonalLoop=1;jettySize=auto;html=1;" edge="1" parent="1" source="9Hj8waU0C1e9nVC4eu25-19" target="9Hj8waU0C1e9nVC4eu25-1">
          <mxGeometry relative="1" as="geometry">
            <Array as="points">
              <mxPoint x="535" y="595" />
            </Array>
          </mxGeometry>
        </mxCell>
        <mxCell id="9Hj8waU0C1e9nVC4eu25-19" value="Refunded" style="rounded=1;whiteSpace=wrap;html=1;arcSize=24;fillColor=#ffffc0;strokeColor=#ff0000;shadow=0;comic=0;labelBackgroundColor=none;fontFamily=Verdana;fontSize=12;fontColor=#000000;align=center;" vertex="1" parent="1">
          <mxGeometry x="490" y="480" width="90" height="50" as="geometry" />
        </mxCell>
        <mxCell id="9Hj8waU0C1e9nVC4eu25-21" value="Booking fulfilled" style="text;html=1;align=center;verticalAlign=middle;whiteSpace=wrap;rounded=0;" vertex="1" parent="1">
          <mxGeometry x="200" y="290" width="90" height="30" as="geometry" />
        </mxCell>
      </root>
    </mxGraphModel>
  </diagram>
</mxfile>
